# xmcd
#
# Track frame offsets:
#	150
#	12259
#	29317
#	46902
#	66210
#	82222
#	98860
#	116712
#	135297
#	150052
#
# Disc length: 2214 seconds
#
# Revision: 0
# Processed by: cddbd v1.4PL0 Copyright (c) Steve Scherf et al.
# Submitted via: audiograbber 1.81.00
#
DISCID=7308a40a
DTITLE=GIANNI NAZZARO - SENZA TE
DYEAR=1900
DGENRE=POP
TTITLE0=QUANTO E BELLA LEI
TTITLE1=MANUELA
TTITLE2=UNA GRANDE ANIMA
TTITLE3=SENZA TE
TTITLE4=ME NE VADO
TTITLE5=VOLA E VA
TTITLE6=LUSINGAME
TTITLE7=REGINELLA
TTITLE8=PALOMA, NOTTE
TTITLE9=ALLERIA
EXTD=
EXTT0=
EXTT1=
EXTT2=
EXTT3=
EXTT4=
EXTT5=
EXTT6=
EXTT7=
EXTT8=
EXTT9=
PLAYORDER=
